<?xml version="1.0" encoding="UTF-8"?>
<svg xmlns="http://www.w3.org/2000/svg" version="1.1" viewBox="0 0 525.7 597.8">
  <defs>
    <style>
      .cls-1 {
        fill: #4a62ff;
      }
    </style>
  </defs>
  <!-- Generator: Adobe Illustrator 28.7.4, SVG Export Plug-In . SVG Version: 1.2.0 Build 166)  -->
  <g>
    <g id="Layer_1">
      <path id="Symbol_-_Blue" class="cls-1" d="M311.1,585.9c-13.8,7.9-31,11.9-48.2,11.9s-34.5-4-48.2-11.9L11.3,468.5l23.7-41,203.3,117.4c12.6,7.3,36.5,7.3,49.2,0l172.8-99.8c11.2-6.5,18.1-18.4,18.1-31.4v-22.5h-18.1c-155.8,0-118.4-223.8-197.4-223.8s-41.7,223.8-197.4,223.8H0v-200.7c0-32.8,17.6-63.3,46-79.7L216.8,12.3c28.4-16.4,63.6-16.4,92,0l170.8,98.6c28.4,16.4,46,46.9,46,79.7v109.1h-47.3v-109.1c0-15.9-8.6-30.7-22.3-38.7l-170.9-98.6c-13.8-8-30.9-8-44.7,0l-170.8,98.6c-13.8,8-22.3,22.8-22.3,38.7v153.4h18.1c115.7,0,68.4-223.8,197.4-223.8s81.3,223.8,197.4,223.8h65.4v70.1c0,29.7-15.8,57.1-41.5,72,0,0-173,99.9-173,99.9Z"/>
    </g>
    <metadata>
      <sfw xmlns="http://ns.adobe.com/SaveForWeb/1.0/">
        <slices/>
        <sliceSourceBounds x="0" y="-597.82" width="525.69" height="597.82" bottomLeftOrigin="true"/>
      </sfw>
    </metadata>
  </g>
</svg>