<?xml version="1.0" encoding="UTF-8"?><svg id="Layer_2" xmlns="http://www.w3.org/2000/svg" viewBox="0 0 877.4723264 181.9550781"><defs><style>.cls-1{fill:#1c3670;}.cls-2{fill:#4a62ff;}</style></defs><g id="Specter_-_Branding"><g id="Wide_Logo_-_On_Light"><path id="Symbol_-_Blue" class="cls-2" d="M94.6851562,178.3300781c-4.1859375,2.4164063-9.4359375,3.625-14.6851562,3.625-5.2496094,0-10.4988281-1.2078125-14.6847656-3.6242187L3.4428242,142.6080655l7.2021494-12.4690129,61.8698702,35.720713c3.8471624,2.2211681,11.1230469,2.2210938,14.9707031-.0007813l52.5983489-30.367023c3.4133723-1.9706694,5.5161042-5.612669,5.5161042-9.5540708v-6.8460937h-5.5082031c-47.4083966,0-36.0473773-68.1148437-60.0917969-68.1148437-24.0549819,0-12.6769735,68.1148437-60.0914062,68.1148437H0v-61.08125c0-9.9726562,5.3648437-19.2640625,14.0003906-24.2492188L66,3.7394531c8.6351563-4.9859375,19.3648437-4.9859375,28,0l52,30.0226563c8.6346331,4.9852812,14,14.2757813,14,24.2484375v33.1929687h-14.4v-33.1929687c0-4.84375-2.6054688-9.35625-6.7996094-11.7773438l-52.0003906-30.0234375c-4.1945312-2.421875-9.4054687-2.421875-13.6,0l-52,30.0226562c-4.1945313,2.421875-6.8,6.934375-6.8,11.778125v46.68125h5.5085938c35.203714,0,20.812881-68.1148437,60.0914062-68.1148437,39.4524314,0,24.7372313,68.1148437,60.0917969,68.1148437h19.9082031v21.3270619c0,9.0356076-4.8204446,17.3848517-12.6455153,21.9026468l-52.6693285,30.4085726Z"/><path id="Wordmark_-_Dark_Blue" class="cls-1" d="M241.0465452,39.6875865c16.9052734,0,29.8930664,5.9790039,38.9643555,17.7299805l-15.668457,12.1635742c-5.7724609-7.6279297-13.1943359-12.3696289-23.2958984-12.3696289-10.5141602,0-16.9052734,4.3291016-16.9052734,11.1328125,0,6.1845703,3.5043945,9.6894531,15.8745117,12.5756836l13.1943359,3.0922852c21.234375,4.7416992,30.3056641,13.8129883,30.3056641,29.480957,0,19.7919922-16.2871094,31.7490234-42.6757812,31.7490234-19.1728516,0-33.3979492-6.597168-43.293457-20.8222656l16.4926758-11.7509766c6.8032227,9.8955078,15.0498047,14.8432617,26.8007812,14.8432617,14.2255859,0,21.440918-4.7416992,21.440918-12.3696289,0-6.597168-3.7109375-9.4833984-18.1420898-13.1943359l-13.1943359-3.0922852c-19.1728516-4.7416992-27.6254883-14.2250977-27.6254883-29.6875,0-17.7294922,14.2250977-29.480957,37.7275391-29.480957ZM298.1529905,41.74911h18.3486328l1.4433594,17.1118164h.4121094c6.597168-11.7514648,18.1420898-19.1733398,35.4599609-19.1733398,27.0068359,0,47.2109375,19.7915039,47.2109375,52.7773438,0,33.6044922-19.9980469,52.7773438-47.4174805,52.7773438-15.8745117,0-26.1821289-5.9785156-33.6040039-16.0805664h-.6186523v49.8911133h-21.2348633V41.74911ZM349.2814084,58.242274c-17.3178711,0-30.0996094,13.1943359-30.0996094,34.2226562,0,21.8530273,12.5756836,34.2226562,29.8935547,34.2226562,17.7294922,0,29.8930664-13.1943359,29.8930664-34.2226562s-12.3696289-34.2226562-29.6870117-34.2226562ZM465.9689084,145.242274c-23.9145508,0-41.6445312-11.9570312-48.6538086-31.1303711-4.9482422-12.7817383-4.9482422-29.6870117,0-42.8813477,7.0092773-19.3793945,24.7392578-31.5429688,47.8291016-31.5429688,25.1518555,0,42.2631836,13.8129883,47.8295898,35.6660156,1.8554688,7.421875,2.2675781,15.668457,1.6494141,24.7392578h-79.1660156c1.8554688,17.1113281,13.1943359,27.2133789,31.1303711,27.2133789,11.7509766,0,20.6162109-4.3291016,26.5947266-12.9882812l15.0498047,11.1328125c-8.8647461,13.1943359-23.2963867,19.7915039-42.2631836,19.7915039ZM435.8692991,82.5694225h57.7250977c-1.4428711-15.668457-11.7509766-24.7397461-28.0375977-24.7397461-16.2871094,0-27.0073242,9.0712891-29.6875,24.7397461ZM579.1534788,145.242274c-30.7182617,0-51.9526367-21.234375-51.9526367-52.5712891,0-31.3364258,21.0283203-52.9833984,52.3647461-52.9833984,17.9360352,0,31.9550781,7.421875,41.8510742,21.440918l-16.0810547,12.3696289c-6.390625-9.6894531-14.637207-14.637207-26.1821289-14.637207-18.1425781,0-30.512207,13.1943359-30.512207,33.8100586,0,20.2041016,12.3696289,33.3984375,30.512207,33.3984375,12.3696289,0,21.0283203-5.1542969,27.4194336-15.2558594l15.6679688,11.9570312c-9.6894531,15.0498047-24.1206055,22.4716797-43.0874023,22.4716797ZM631.7242795,41.74911h15.8745117v-23.9145508l21.4404297-3.9169922v27.831543h29.8935547v19.9980469h-29.8935547v49.6845703c0,8.246582,3.7109375,12.3696289,11.9575195,12.3696289h17.9360352v19.3793945h-19.1728516c-19.9980469,0-32.1611328-10.9267578-32.1611328-31.5424805v-49.8911133h-15.8745117v-19.9980469ZM757.8971311,145.242274c-23.9145508,0-41.6445312-11.9570312-48.6542969-31.1303711-4.9477539-12.7817383-4.9477539-29.6870117,0-42.8813477,7.0097656-19.3793945,24.7397461-31.5429688,47.8295898-31.5429688,25.1518555,0,42.2631836,13.8129883,47.8295898,35.6660156,1.8554688,7.421875,2.2675781,15.668457,1.6494141,24.7392578h-79.1660156c1.8554688,17.1113281,13.1943359,27.2133789,31.1303711,27.2133789,11.7509766,0,20.6162109-4.3291016,26.5947266-12.9882812l15.0498047,11.1328125c-8.8647461,13.1943359-23.2963867,19.7915039-42.2631836,19.7915039ZM727.7975217,82.5694225h57.7250977c-1.4428711-15.668457-11.7509766-24.7397461-28.0375977-24.7397461-16.2871094,0-27.0073242,9.0712891-29.6875,24.7397461ZM822.8395139,143.1807506V41.74911h16.9052734l1.6494141,18.5546875h.4125977c4.3291016-12.5756836,13.1943359-18.5546875,27.4194336-18.5546875h8.2460938v19.9980469h-8.4521484c-16.2871094,0-24.7397461,8.6586914-24.7397461,27.0068359v54.4267578h-21.440918Z"/></g></g></svg>